<svg width="40" height="35" viewBox="0 0 40 35" fill="none" xmlns="http://www.w3.org/2000/svg">
<path d="M20 9.5C14.3214 9.5 11.5 12.5312 11.5 17.5C11.5 22.4688 14.3214 25.5 20 25.5C25.6786 25.5 28.5 22.4746 28.5 17.5058C28.5 12.5371 25.6786 9.5 20 9.5ZM20 23.5C16.3304 23.5 13.5 20.7188 13.5 17.5C13.5 14.2812 16.3214 11.5 20 11.5C23.6786 11.5 26.5 14.2812 26.5 17.5C26.5 20.7188 23.6696 23.5 20 23.5ZM33.087 8.16208C33.087 9.32614 32.0156 10.2558 30.6942 10.2558C29.3638 10.2558 28.3013 9.31833 28.3013 8.16208C28.3013 7.00583 29.3728 6.06833 30.6942 6.06833C32.0156 6.06833 33.087 7.00583 33.087 8.16208ZM39 10.2558C38.8482 7.45114 38.9978 4.99801 36.6495 2.95114C34.3103 0.904263 31.5067 1.14062 28.3013 0.999996C24.9978 0.835933 15.0603 0.835942 11.7567 1C8.56027 1.13282 5.72098 0.896451 3.37277 2.94333C1.02455 4.9902 1.16071 7.45114 1 10.2558C0.812501 13.1465 0.8125 21.834 1 24.7246C1.15179 27.5293 1.02455 30.0136 3.37277 32.0605C5.72098 34.1074 8.55134 33.8593 11.7567 34C15.0603 34.164 24.9978 34.164 28.3013 34C31.5067 33.8672 34.3103 34.1152 36.6495 32.0605C38.9888 30.0136 38.8393 27.5293 39 24.7246C39.1875 21.834 39.1875 13.1465 39 10.2558ZM36 28.5C35.5 30 34.2589 30.8828 32.5 31.5C29.8661 32.4141 22.9263 32.0605 20.0156 32.0605C17.1049 32.0605 10.125 32.4062 7.5 31.5C5.75 30.8906 4.70536 30.0391 4 28.5C2.95536 26.1953 3 20.0527 3 17.5058C3 14.959 2.96429 8.79687 4 6.5C4.69643 4.96875 5.74107 4.11718 7.5 3.5C10.1339 2.58593 17.1049 2.94333 20.0156 2.94333C22.9263 2.94333 29.875 2.59375 32.5 3.5C34.25 4.10937 35.2946 4.96093 36 6.5C37.0446 8.80468 37 14.959 37 17.5058C37 20.0527 37.0446 26.2031 36 28.5Z" fill="black"/>
</svg>
