<svg width="40" height="33" viewBox="0 0 40 33" fill="none" xmlns="http://www.w3.org/2000/svg">
<path d="M0 4.54524C0 2.72874 1.02767 2.01171 2.29249 1.9161L8.18182 1.9639C8.53755 1.9639 8.85375 2.25072 8.97233 2.68094C10.3162 7.93921 11.9763 11.1898 13.9526 14.8706C14.0711 15.1574 14.2688 15.3008 14.4664 15.3008C14.6245 15.3008 14.7826 15.2052 14.9012 14.9662L15.0198 14.4403L15.0593 6.17052C15.0593 4.97546 14.585 4.78425 13.4783 4.59304C13.0435 4.49743 12.7668 4.01941 12.7668 3.54139C12.7668 3.44578 12.7668 3.35018 12.8063 3.25457C13.3597 1.19907 15.0988 0.147412 17.5494 0.147412L19.7628 0.0996094C21.581 0.0996094 23.2411 1.05566 23.2411 3.876V14.7272C23.3992 14.8706 23.5573 14.9662 23.7549 14.9662C24.0711 14.9662 24.4664 14.7272 24.7826 14.1057C26.8379 10.6161 29.17 6.45733 29.4862 4.25842C29.4862 4.16282 29.5257 4.11501 29.5652 4.01941C30 2.96776 31.1067 2.25072 31.581 2.05951C31.6601 2.01171 31.7787 1.9639 31.9368 1.9639H38.0632L38.4585 2.01171C39.0514 2.01171 39.4862 2.48973 39.6838 2.91995C40.0395 3.58919 39.9605 4.30622 40 4.59304V4.92766C39.4071 9.27768 35.2964 14.1535 33.5573 17.3085C33.3202 17.6909 33.2016 18.0255 33.2016 18.3601C33.2016 18.647 33.3202 18.9338 33.5178 19.2206L39.2885 28.0162C39.6047 28.5421 39.7628 29.1635 39.7628 29.6893C39.7628 31.2668 38.5375 32.175 37.3518 32.3185L36.6798 32.3663H30.6719C30.5534 32.3663 30.4743 32.4141 30.3557 32.4141C29.6838 32.4141 29.1304 31.9838 28.7352 31.5058C27.4704 29.6415 26.2451 27.7294 25.0198 25.8651C24.7826 25.4827 24.7036 25.4349 24.4664 25.2437C24.1897 26.63 23.9526 28.064 23.6759 29.4981L23.5573 30.3108C23.3597 31.1712 22.8458 32.0794 21.8972 32.3185L21.3439 32.3663H17.4704C10.6324 32.3663 4.50593 20.6069 0.197628 5.93151C0.0790514 5.54909 0 5.02326 0 4.54524ZM23.7549 16.9261C22.7273 16.9261 21.581 16.209 21.581 14.8706V3.876C21.581 2.58534 21.1067 2.10731 19.8024 2.10731L17.5494 2.20292C16.2846 2.20292 15.5731 2.44193 14.9802 2.91995C15.8893 3.44578 16.7194 4.16282 16.7194 6.17052V14.5837C16.6008 16.2568 15.4545 17.3563 14.3478 17.3563C13.5968 17.3563 12.9249 16.8305 12.5296 15.97C10.751 12.7195 9.24901 9.6601 7.94466 5.26227L7.58893 4.01941L2.33202 3.97161C1.62055 3.97161 1.6996 4.01941 1.6996 4.44963C1.6996 4.73645 1.73913 5.11887 1.77866 5.35788L2.6087 8.03482C6.917 21.5151 12.332 30.3586 17.4704 30.3586H21.4229C21.9763 30.3586 21.9368 29.5459 22.0553 29.0679L22.8063 24.8613C22.9644 24.4311 23.083 24.0486 23.3597 23.714C23.6759 23.3316 24.0316 23.1882 24.3874 23.1882C25.1383 23.1882 25.8498 23.9052 26.3241 24.5745L29.6838 29.7371C29.9605 30.263 30.1976 30.3586 30.3557 30.3586H36.8775C37.5099 30.3586 38.0632 30.1195 38.0632 29.6415C38.0632 29.4981 38.0237 29.3069 37.9447 29.1635L32.2134 20.5113C31.7391 19.7942 31.5415 19.0772 31.5415 18.3601C31.5415 17.5953 31.7787 16.8305 32.1739 16.1612C33.834 13.1497 37.3913 8.84746 38.2213 5.31008L38.3399 4.68864C38.3004 4.44963 38.3004 4.25842 38.2609 4.01941H32.0553C31.6601 4.21062 31.3439 4.49743 31.1067 4.87985L30.8696 5.7881C29.9605 8.84746 27.4704 13.0541 25.6917 15.97C25.0988 16.6393 24.4269 16.9261 23.7549 16.9261Z" fill="black"/>
</svg>
