<svg width="34" height="30" viewBox="0 0 34 30" fill="none" xmlns="http://www.w3.org/2000/svg">
<path d="M16.6667 0C18.5 0 21 0 23.3333 2.33334C25.2855 4.28555 26 6.5 26.2333 9V11H33.3333V13H32H30.5L29.5 28C29.4653 28.4165 29.3075 28.7169 29 29C28.6925 29.2831 28.3632 29.4998 27.9453 29.5H16.6667H5.5C5.08208 29.4998 4.5 29.5 4 29C3.64645 28.6464 3.53469 28.4165 3.5 28L2.5 13H0V11H7V9C7 5.5 8.88077 3.21442 10.5 2C12.1192 0.785577 13.5 0 16.6667 0ZM28 13H16.6667H5L6 27.3333H26.9317L28 13ZM18 17.3333V20.5V24H15.5V17.3333H18ZM11 17.3333V20.5V24H8.33333V17.3333H11ZM24.5 17.3333V20.5V24H22V20.5V17.3333H24.5ZM17 1.85995C14.1671 1.85995 12.5 2.5 11.5 3.5C9.83385 5.16615 9.08552 6.29174 9 8V9V11H16.6667H24V9C24 7.2896 23.3333 5 22 4C20.8212 2.76069 19.8924 1.85995 17 1.85995Z" fill="black"/>
</svg>
