<svg width="35" height="38" viewBox="0 0 35 38" fill="none" xmlns="http://www.w3.org/2000/svg">
<path d="M8.65852 0.981269C9.97384 2.94229 11.5424 5.47325 13.3572 8.56683C13.8144 9.40292 13.744 10.4062 13.1532 11.5844C12.9281 12.0784 12.3584 13.2033 11.451 14.9743C12.4498 16.4945 13.9691 18.3643 16.0159 20.5686C18.0628 22.7728 19.765 24.4222 21.1225 25.5015C22.7543 24.4678 23.8024 23.8369 24.2596 23.5861C24.8504 23.2441 25.4201 23.0693 25.9617 23.0693C26.3697 23.0693 26.7355 23.1681 27.052 23.3657C29.141 24.7415 31.5044 26.4364 34.135 28.4431C34.6344 28.8383 34.9157 29.378 34.9861 30.0621C35.0564 30.7538 34.8595 31.4834 34.4093 32.2739C34.1843 32.616 33.8185 33.1176 33.3191 33.7865C32.8197 34.4478 32.0671 35.2839 31.0682 36.2872C30.0694 37.2905 29.2535 37.7998 28.6134 37.7998H28.5431C23.739 37.5946 17.8166 33.7029 10.8039 26.1249C3.78418 18.5392 0.182878 12.1469 0 6.94797C0 6.26389 0.46423 5.36699 1.39972 4.25727C2.32818 3.15515 3.09487 2.35706 3.67863 1.863C4.26947 1.37655 4.76887 0.981307 5.17683 0.684874C5.67623 0.28963 6.24597 0.0996094 6.87901 0.0996094C7.65976 0.0996094 8.24356 0.396042 8.65855 0.981307L8.65852 0.981269ZM6.40778 2.52416C5.45118 3.26144 4.55779 4.08986 3.71373 4.99436C2.87671 5.90646 2.38435 6.57533 2.25071 7.01618C2.43358 11.5843 5.80277 17.3989 12.3653 24.4677C18.9278 31.5365 24.3227 35.1925 28.543 35.4357C28.9088 35.2913 29.5066 34.7516 30.3507 33.8167C31.1947 32.8818 31.9544 31.9014 32.6296 30.8753C32.7633 30.6776 32.8125 30.5104 32.7633 30.3584C30.0412 28.2986 27.7693 26.6568 25.9475 25.4254C25.7647 25.4254 25.5396 25.5014 25.2653 25.6458C24.8573 25.8891 23.8374 26.5047 22.1985 27.4852L21.0379 28.2225L19.8774 27.4092C18.3792 26.2843 16.5645 24.5361 14.4262 22.1799C12.295 19.8768 10.7054 17.9082 9.65732 16.2892L8.8414 15.1111L9.52367 13.7886C10.431 12.0252 11.0008 10.9155 11.2259 10.4746C11.3595 10.1782 11.4298 9.93494 11.4298 9.73732C9.81206 6.94778 8.3139 4.49274 6.94938 2.37971H6.87904C6.7032 2.37971 6.54142 2.43291 6.40778 2.52412V2.52416Z" fill="black"/>
</svg>
